<svg xmlns="http://www.w3.org/2000/svg" width="782" height="344" viewBox="0 0 782 344">
  <defs>
    <style>
      .cls-1 {
        fill: #d91414;
      }

      .cls-1, .cls-2, .cls-3 {
        fill-rule: evenodd;
      }

      .cls-2 {
        fill: #0a0101;
      }

      .cls-3 {
        fill: #f20000;
      }
    </style>
  </defs>
  <g id="Prancheta_1" data-name="Prancheta 1">
    <g id="Agrupar_1" data-name="Agrupar 1">
      <path id="Traz" class="cls-1" d="M378.034,175h18.288L409.4,105.405h22.859l3.048-16H371.684l-3.175,16h22.606Zm62.1,0,4.318-23.114c2.286-12.192,7.747-22.606,19.43-22.606a21.526,21.526,0,0,1,2.921.127l3.556-17.779a30.948,30.948,0,0,0-3.429-.127c-8.508,0-15.493,5.841-19.811,14.1h-0.381c0.381-4.318.762-8.509,1.143-12.7H432.009c-0.635,5.333-1.4,15.747-3.175,25.145L421.849,175h18.288Zm85.09,0a150.152,150.152,0,0,1,2.413-27.94l6.6-32.512A74.025,74.025,0,0,0,513.67,111.5c-30.606,0-44.449,22.351-44.449,43.306,0,12.954,7.62,21.59,18.8,21.59,7.239,0,15.112-3.429,20.827-13.716h0.381c-0.381,4.445-.762,8.636-0.889,12.319h16.891Zm-14.478-34.8c-2.794,15.24-9.524,21.463-14.985,21.463-5.08,0-7.493-4.191-7.493-10.287,0-11.557,8.636-26.035,20.446-26.035a28.318,28.318,0,0,1,4.953.508ZM533.1,175h51.562l2.921-14.859H558.5v-0.254a143.655,143.655,0,0,0,15.113-14.351l19.811-21.082,2.032-11.556H546.943l-2.794,14.731h26.543l-0.127.381a181.553,181.553,0,0,0-15.24,14.224l-20.193,21.717Z" transform="translate(-312)"/>
      <path id="Pra" class="cls-2" d="M449.93,245h14.325l4.673-24.687a45,45,0,0,0,5.994.406c8.331,0,16.255-1.93,21.843-6.3a23.77,23.77,0,0,0,9.346-19.3A16.745,16.745,0,0,0,498.7,180.59c-4.978-3.556-12.09-4.572-18.185-4.572a80.022,80.022,0,0,0-17.881,1.829Zm25.094-56.791a26.014,26.014,0,0,1,5.892-.507c5.689,0,10.464,2.133,10.464,8.737,0,6.806-5.791,12.5-14.629,12.5a26.85,26.85,0,0,1-5.588-.508ZM520.44,245l3.454-18.49c1.828-9.753,6.2-18.084,15.544-18.084a17.146,17.146,0,0,1,2.336.1l2.845-14.223a24.667,24.667,0,0,0-2.743-.1c-6.807,0-12.395,4.674-15.849,11.277h-0.305c0.305-3.454.61-6.806,0.915-10.159h-12.7c-0.508,4.267-1.118,12.6-2.54,20.115L505.81,245h14.63Zm68.07,0a120.132,120.132,0,0,1,1.93-22.35l5.283-26.008a59.166,59.166,0,0,0-16.458-2.439c-24.484,0-35.557,17.881-35.557,34.644,0,10.362,6.1,17.271,15.036,17.271,5.79,0,12.089-2.744,16.661-10.973h0.305c-0.305,3.556-.61,6.909-0.712,9.855H588.51Zm-11.581-27.837c-2.235,12.192-7.62,17.17-11.988,17.17-4.064,0-5.994-3.353-5.994-8.229,0-9.245,6.908-20.827,16.356-20.827a22.669,22.669,0,0,1,3.962.406Z" transform="translate(-312)"/>
      <path id="MIM" class="cls-3" d="M776.054,243l20.8-154.081H752.279L723.7,147.442c-6.629,13.945-14.859,32-20.8,49.151h-0.914c-0.229-17.146-1.829-34.749-2.744-49.151l-4.8-58.523H650.32L611.686,243h30.176l15.317-63.553c3.886-16.688,8.458-39.777,12.8-60.123h0.457c0.914,20.574,2.057,41.835,3.429,58.752l5.487,62.409h25.6l31.547-63.1c8.459-16.917,18.06-38.178,26.519-58.066h0.686c-4.344,22.174-7.773,43.435-10.288,60.123L744.049,243h32ZM831.6,88.919L802.338,243h32.92L864.519,88.919H831.6ZM1026.37,243l20.8-154.081h-44.58l-28.573,58.523c-6.63,13.945-14.859,32-20.8,49.151H952.3c-0.228-17.146-1.828-34.749-2.743-49.151l-4.8-58.523H900.634L862,243h30.176l15.316-63.553c3.887-16.688,8.459-39.777,12.8-60.123h0.458c0.914,20.574,2.057,41.835,3.429,58.752l5.486,62.409h25.6l31.548-63.1c8.459-16.917,18.061-38.178,26.521-58.066h0.68c-4.34,22.174-7.77,43.435-10.28,60.123L994.363,243h32.007Z" transform="translate(-312)"/>
    </g>
  </g>
</svg>
